# xmcd
#
# Track frame offsets: 
#        150
#        11912
#        24075
#        35167
#        46435
#        56932
#        67137
#        76585
#        86065
#        97517
#        109125
#        120905
#        132380
#        145807
#        159772
#
# Disc length: 2280 seconds
#
# Revision: 2
# Processed by: cddbd v1.5.2PL0 Copyright (c) Steve Scherf et al.
# Submitted via: ExactAudioCopy v0.99pb5
#
DISCID=bc08e60f
DTITLE=Various Artist - Classic Country Vol. 18 The '50s Treasures Disc 1
DYEAR=2000
DGENRE=Country
TTITLE0=Tennessee Ernie Ford - The Shot Gun Boogie
TTITLE1=Jimmy Heap With Perk Williams - Release Me
TTITLE2=Ray Price - I'll Be There (If You Ever Want Me)
TTITLE3=Hank Locklin - Let Me Be The One
TTITLE4=Justin Tubb And Goldie Hill - Looking Back To See
TTITLE5=Louvin Brothers - You're Running Wild
TTITLE6=Webb Pierce - Honky Tonk Song
TTITLE7=Jim Reeves - Billy Bayou
TTITLE8=Johnny Cash - Big River
TTITLE9=Rusty Draper - Gambler's Guitar
TTITLE10=Jimmie Rodgers - Secretly
TTITLE11=Hank Thompson - Squaws Along The Yukon
TTITLE12=Jimmie Skinner - I Found My Girl In The U.S.A.
TTITLE13=Lefty Frizzell - Mom And Dad's Waltz
TTITLE14=Stonewall Jackson - Life To Go
EXTD=
EXTT0=
EXTT1=
EXTT2=
EXTT3=
EXTT4=
EXTT5=
EXTT6=
EXTT7=
EXTT8=
EXTT9=
EXTT10=
EXTT11=
EXTT12=
EXTT13=
EXTT14=
PLAYORDER=
